<svg width="26" height="26" viewBox="0 0 26 26" fill="none" xmlns="http://www.w3.org/2000/svg">
  <path
    d="M7.5 19.5971V19.0121C7.5 17.3553 8.8559 16 10.5121 16H15.5834C17.2396 16 18.5948 17.3553 18.5948 19.0121V19.5971"
    stroke="#F1F3F5" stroke-linecap="square" stroke-linejoin="round"/>
  <path fill-rule="evenodd" clip-rule="evenodd"
        d="M16 11.0003C16 12.6572 14.6572 14.0007 13.0003 14.0007C11.3435 14.0007 10 12.6572 10 11.0003C10 9.34349 11.3435 8 13.0003 8C14.6572 8 16 9.34349 16 11.0003Z"
        stroke="#F1F3F5" stroke-linecap="square" stroke-linejoin="round"/>
  <path fill-rule="evenodd" clip-rule="evenodd"
        d="M7 8.5C7 9.60438 6.10492 10.5 5 10.5C3.89562 10.5 3 9.60438 3 8.5C3 7.39562 3.89562 6.5 5 6.5C6.10492 6.5 7 7.39562 7 8.5Z"
        stroke="#F1F3F5" stroke-linecap="square" stroke-linejoin="round"/>
  <path fill-rule="evenodd" clip-rule="evenodd"
        d="M23 8.5C23 9.60438 22.1049 10.5 21 10.5C19.8956 10.5 19 9.60438 19 8.5C19 7.39562 19.8956 6.5 21 6.5C22.1049 6.5 23 7.39562 23 8.5Z"
        stroke="#F1F3F5" stroke-linecap="square" stroke-linejoin="round"/>
  <path d="M25.5 15.5V15C25.5 13.5967 24.4033 12.5 23 12.5H19" stroke="#F1F3F5" stroke-linecap="square"
        stroke-linejoin="round"/>
  <path d="M0.5 15.5V15C0.5 13.5967 1.59665 12.5 3 12.5H7" stroke="#F1F3F5" stroke-linecap="square"
        stroke-linejoin="round"/>
</svg>
