<svg width="20" height="20" viewBox="0 0 20 20" fill="none" xmlns="http://www.w3.org/2000/svg">
  <path
    d="M0.817166 16.5002C0.899604 16.4095 0.99449 16.3158 1.09872 16.2219C1.4913 15.8682 1.94801 15.5717 2.20484 15.4563L2.20495 15.4563C2.69211 15.2374 3.00963 14.7785 3.20053 14.3499C3.39606 13.9108 3.49909 13.4153 3.5 13.0013L3.5 12.9991L3 13.0002L3.5 12.999L3.5 12.9989L3.5 12.9984L3.49999 12.9963L3.49997 12.988L3.4999 12.9555L3.49963 12.8291L3.49874 12.3537C3.49804 11.9465 3.4972 11.3703 3.49664 10.6947C3.49552 9.3432 3.49552 7.59389 3.5 6.00163C3.50837 3.02155 5.56893 0.492934 8.46029 0.500174H8.46154H11.5378C14.4352 0.507777 16.5084 3.02646 16.5 5.99882V6.00023L16.5 12.9991C16.5 12.9995 16.5 12.9998 16.5 13.0001V13.0002H17C16.9985 13.6829 17.3775 14.7015 18 15.0002L0.817166 16.5002ZM0.817166 16.5002H19.1791M0.817166 16.5002H19.1791M19.1791 16.5002C19.0982 16.4124 19.0053 16.3218 18.9033 16.2307C18.5114 15.8804 18.0497 15.5792 17.7833 15.4508L19.1791 16.5002Z"
    stroke="#F1F3F5"/>
  <path
    d="M13.4634 16.5239C13.217 18.2105 11.757 19.5049 9.99349 19.5002C8.22943 19.4944 6.77529 18.1905 6.53488 16.5019L13.4634 16.5239Z"
    stroke="#F1F3F5"/>
</svg>
