<svg width="32" height="32" viewBox="0 0 32 32" fill="none" xmlns="http://www.w3.org/2000/svg">
  <path fill-rule="evenodd" clip-rule="evenodd"
        d="M22.5843 11.7723C22.3135 11.1814 21.8562 10.6819 21.2266 10.2704C20.9875 10.1086 20.6815 9.96791 20.3473 9.83777L20.8011 7.40734L18.4656 6.96769L18.0365 9.23983L16.5346 8.95845L16.9637 6.68631L14.6248 6.24665L14.1956 8.52231L10.6256 7.85403L10.2704 9.7639L10.8156 9.86591C11.1814 9.92922 11.4205 10.0101 11.5331 10.1016C11.6527 10.186 11.723 10.295 11.7547 10.4181C11.7863 10.5412 11.7652 10.805 11.6878 11.22L10.2458 18.9158C10.1719 19.3168 10.1016 19.5735 10.0242 19.6755C9.9468 19.7775 9.84128 19.8549 9.70059 19.8936C9.5599 19.9323 9.31018 19.9182 8.9479 19.8408L8.39921 19.7494L8.04397 21.6522L11.6105 22.3135L11.1884 24.5856L13.5274 25.0253L13.9494 22.7531L15.279 22.9993C15.3388 23.0134 15.3915 23.0169 15.4513 23.031L15.0292 25.3031L17.3647 25.7358L17.829 23.2772C18.2335 23.2702 18.5957 23.235 18.9158 23.1822C19.7846 23.0099 20.4951 22.6547 21.0543 22.1165C21.61 21.5889 21.9582 20.9558 22.0919 20.2207C22.208 19.6017 22.1658 19.0178 21.9688 18.4762C21.7683 17.9204 21.4482 17.4597 21.0051 17.0868C20.7026 16.8266 20.2383 16.5522 19.6263 16.2708C20.2664 16.1759 20.7975 16.0106 21.2231 15.7608C21.6522 15.5146 22.0004 15.2051 22.2678 14.8288C22.5386 14.4559 22.7215 14.0374 22.8024 13.5836C22.929 12.9857 22.8551 12.3667 22.5843 11.7723ZM32 16C32 24.8389 24.8353 31.9965 15.9965 31.9965C7.16113 31.9965 0 24.8389 0 16C0 7.15762 7.16113 0 15.9965 0C24.8353 0 32 7.15762 32 16ZM18.5852 11.818C18.2686 11.6421 17.6637 11.4733 16.7773 11.308L15.2649 11.0231L14.6318 14.3891L16.1477 14.674C16.9391 14.8182 17.537 14.8639 17.9415 14.8006C18.346 14.7338 18.6626 14.5896 18.9088 14.361C19.1444 14.1394 19.3027 13.8404 19.366 13.4887C19.4364 13.1229 19.4012 12.8028 19.2675 12.5074C19.1409 12.2225 18.9158 11.9868 18.5852 11.818ZM18.4902 18.1033C18.6274 18.4269 18.652 18.7822 18.5817 19.2007C18.4902 19.6861 18.2792 20.0659 17.945 20.3614C17.6074 20.6463 17.2416 20.8186 16.8371 20.8573C16.4291 20.896 15.9332 20.8573 15.3493 20.7518L14.3399 20.5548C14.0057 20.488 13.8052 20.4353 13.7314 20.386C13.661 20.3368 13.6223 20.2664 13.6047 20.1679C13.5977 20.0941 13.6259 19.8338 13.6962 19.4153L14.2554 16.4256L16.0457 16.7562C16.8301 16.9075 17.3999 17.0903 17.7516 17.3014C18.1068 17.5124 18.3495 17.7868 18.4902 18.1033Z"
        fill="#495057"/>
  <mask id="mask0" mask-type="alpha" maskUnits="userSpaceOnUse" x="0" y="0" width="32" height="32">
    <path fill-rule="evenodd" clip-rule="evenodd"
          d="M22.5843 11.7723C22.3135 11.1814 21.8562 10.6819 21.2266 10.2704C20.9875 10.1086 20.6815 9.96791 20.3473 9.83777L20.8011 7.40734L18.4656 6.96769L18.0365 9.23983L16.5346 8.95845L16.9637 6.68631L14.6248 6.24665L14.1956 8.52231L10.6256 7.85403L10.2704 9.7639L10.8156 9.86591C11.1814 9.92922 11.4205 10.0101 11.5331 10.1016C11.6527 10.186 11.723 10.295 11.7547 10.4181C11.7863 10.5412 11.7652 10.805 11.6878 11.22L10.2458 18.9158C10.1719 19.3168 10.1016 19.5735 10.0242 19.6755C9.9468 19.7775 9.84128 19.8549 9.70059 19.8936C9.5599 19.9323 9.31018 19.9182 8.9479 19.8408L8.39921 19.7494L8.04397 21.6522L11.6105 22.3135L11.1884 24.5856L13.5274 25.0253L13.9494 22.7531L15.279 22.9993C15.3388 23.0134 15.3915 23.0169 15.4513 23.031L15.0292 25.3031L17.3647 25.7358L17.829 23.2772C18.2335 23.2702 18.5957 23.235 18.9158 23.1822C19.7846 23.0099 20.4951 22.6547 21.0543 22.1165C21.61 21.5889 21.9582 20.9558 22.0919 20.2207C22.208 19.6017 22.1658 19.0178 21.9688 18.4762C21.7683 17.9204 21.4482 17.4597 21.0051 17.0868C20.7026 16.8266 20.2383 16.5522 19.6263 16.2708C20.2664 16.1759 20.7975 16.0106 21.2231 15.7608C21.6522 15.5146 22.0004 15.2051 22.2678 14.8288C22.5386 14.4559 22.7215 14.0374 22.8024 13.5836C22.929 12.9857 22.8551 12.3667 22.5843 11.7723ZM32 16C32 24.8389 24.8353 31.9965 15.9965 31.9965C7.16113 31.9965 0 24.8389 0 16C0 7.15762 7.16113 0 15.9965 0C24.8353 0 32 7.15762 32 16ZM18.5852 11.818C18.2686 11.6421 17.6637 11.4733 16.7773 11.308L15.2649 11.0231L14.6318 14.3891L16.1477 14.674C16.9391 14.8182 17.537 14.8639 17.9415 14.8006C18.346 14.7338 18.6626 14.5896 18.9088 14.361C19.1444 14.1394 19.3027 13.8404 19.366 13.4887C19.4364 13.1229 19.4012 12.8028 19.2675 12.5074C19.1409 12.2225 18.9158 11.9868 18.5852 11.818ZM18.4902 18.1033C18.6274 18.4269 18.652 18.7822 18.5817 19.2007C18.4902 19.6861 18.2792 20.0659 17.945 20.3614C17.6074 20.6463 17.2416 20.8186 16.8371 20.8573C16.4291 20.896 15.9332 20.8573 15.3493 20.7518L14.3399 20.5548C14.0057 20.488 13.8052 20.4353 13.7314 20.386C13.661 20.3368 13.6223 20.2664 13.6047 20.1679C13.5977 20.0941 13.6259 19.8338 13.6962 19.4153L14.2554 16.4256L16.0457 16.7562C16.8301 16.9075 17.3999 17.0903 17.7516 17.3014C18.1068 17.5124 18.3495 17.7868 18.4902 18.1033Z"
          fill="white"/>
  </mask>
  <g mask="url(#mask0)">
    <rect width="32" height="32" fill="#212529"/>
  </g>
</svg>
