<svg width="20" height="22" viewBox="0 0 20 22" fill="none" xmlns="http://www.w3.org/2000/svg">
  <path fill-rule="evenodd" clip-rule="evenodd" d="M16.5383 20.6155V6.00015L11.923 1.38477H3.46143V20.6155H16.5383Z" stroke="#F1F3F5"/>
  <path d="M16.5386 6.38477H11.5386V1.38477" stroke="#F1F3F5"/>
  <path fill-rule="evenodd" clip-rule="evenodd" d="M6.15381 17.436H6.84359V13.3076H6.15381V17.436ZM10.0765 15.9608V15.9495C10.0765 15.4234 9.69765 14.9879 9.1592 14.9879C8.6115 14.9879 8.26043 15.4182 8.26043 15.9382V15.9495C8.26043 16.4694 8.63929 16.9049 9.17156 16.9049C9.72544 16.9049 10.0765 16.4756 10.0765 15.9608ZM7.57579 15.9608V15.9495C7.57579 15.096 8.25425 14.3887 9.17156 14.3887C10.0878 14.3887 10.7601 15.0837 10.7601 15.9382V15.9495C10.7601 16.7978 10.0817 17.5051 9.1592 17.5051C8.25013 17.5051 7.57579 16.8091 7.57579 15.9608ZM13.7231 15.7852V15.7965C13.7231 16.2835 13.3206 16.617 12.8459 16.617C12.3765 16.617 11.9976 16.2835 11.9976 15.7965V15.7852C11.9976 15.2931 12.3713 14.9708 12.8459 14.9708C13.3206 14.9708 13.7231 15.2992 13.7231 15.7852ZM11.7093 17.4818L11.455 17.9966C11.8391 18.2282 12.2972 18.3528 12.7893 18.3528C13.3267 18.3528 13.7447 18.2231 14.0165 17.9513C14.2657 17.7032 14.3954 17.3295 14.3954 16.826V14.4509H13.7107V14.8977C13.4801 14.6197 13.1682 14.3881 12.6658 14.3881C11.9698 14.3881 11.3078 14.909 11.3078 15.7913V15.8027C11.3078 16.6788 11.9575 17.1987 12.6658 17.1987C13.1569 17.1987 13.4678 16.9732 13.7169 16.6561V16.8826C13.7169 17.4818 13.3834 17.7927 12.7718 17.7927C12.3662 17.7927 12.0316 17.6805 11.7093 17.4818Z" fill="#F1F3F5"/>
</svg>
