<svg width="20" height="22" viewBox="0 0 20 22" fill="none" xmlns="http://www.w3.org/2000/svg">
  <path d="M7.30762 12.5386V20.2309L10.0989 17.5731L12.6922 20.0429V12.5386" stroke="#F1F3F5"/>
  <path fill-rule="evenodd" clip-rule="evenodd" d="M14.6236 9.83859L16.5383 7.92323L14.6236 6.00845V3.30013H11.9147L9.99989 1.38477L8.08511 3.30013H5.37621V6.00845L3.46143 7.92323L5.37621 9.83859V12.5469H8.08511L9.99989 14.4623L11.9147 12.5469H14.6236V9.83859Z" stroke="#F1F3F5"/>
  <path fill-rule="evenodd" clip-rule="evenodd" d="M13.4617 7.92266C13.4617 9.83454 11.9123 11.3839 10.0004 11.3839C8.08915 11.3839 6.53857 9.83454 6.53857 7.92266C6.53857 6.01077 8.08915 4.46143 10.0004 4.46143C11.9123 4.46143 13.4617 6.01077 13.4617 7.92266Z" stroke="#F1F3F5"/>
</svg>
