<svg width="20" height="22" viewBox="0 0 20 22" fill="none" xmlns="http://www.w3.org/2000/svg">
  <path fill-rule="evenodd" clip-rule="evenodd" d="M9.99982 14.4611C8.0883 14.4611 6.53857 12.9113 6.53857 10.9998C6.53857 9.0883 8.0883 7.53857 9.99982 7.53857C11.9113 7.53857 13.4617 9.0883 13.4617 10.9998C13.4617 12.9113 11.9113 14.4611 9.99982 14.4611Z" stroke="#F1F3F5"/>
  <path fill-rule="evenodd" clip-rule="evenodd" d="M17.3242 12.4549C17.2355 12.3662 17.1966 12.2414 17.216 12.1173C17.2729 11.7528 17.3054 11.3806 17.3054 11.0002C17.3054 10.6197 17.2729 10.2468 17.216 9.88226C17.1966 9.7589 17.2355 9.63415 17.3242 9.54544L18.9106 7.95835C19.0353 7.8336 19.0609 7.64093 18.9722 7.48777L17.4766 4.89715C17.3886 4.74398 17.2084 4.66913 17.0379 4.71487L14.8715 5.29565C14.7509 5.32753 14.624 5.29842 14.5277 5.2208C13.9462 4.75507 13.2927 4.37874 12.5879 4.1043C12.4721 4.05925 12.3841 3.96569 12.3515 3.8451C12.2289 3.38768 11.9156 2.21781 11.7694 1.67238C11.7236 1.50189 11.5691 1.38477 11.3923 1.38477H8.40113C8.22441 1.38477 8.06986 1.50328 8.02411 1.67377L7.44264 3.84371C7.41007 3.96361 7.32136 4.05925 7.20562 4.1043C6.50079 4.37874 5.84724 4.75507 5.26647 5.2208C5.17013 5.29842 5.04469 5.32822 4.92479 5.29565C4.46738 5.17298 3.29959 4.86041 2.75485 4.71487C2.58436 4.66913 2.40555 4.74398 2.31684 4.89715L0.821239 7.48777C0.733221 7.64093 0.758171 7.8336 0.883613 7.95835L2.47001 9.54544C2.55872 9.63415 2.59753 9.7589 2.57743 9.88226C2.52129 10.2468 2.48803 10.6197 2.48803 11.0002C2.48803 11.3806 2.52129 11.7528 2.57743 12.1173C2.59753 12.2414 2.55872 12.3662 2.47001 12.4549L0.883613 14.0413C0.758171 14.1667 0.733221 14.3594 0.821239 14.5125L2.31684 17.1032C2.40555 17.2563 2.58575 17.3305 2.75624 17.2854L4.92271 16.7047C5.0433 16.6728 5.17013 16.7019 5.26647 16.7795C5.84724 17.2445 6.50079 17.6209 7.20562 17.896C7.32136 17.9411 7.41007 18.0346 7.44195 18.1545C7.56532 18.6126 7.87857 19.7825 8.02481 20.3279C8.07055 20.4984 8.22441 20.6155 8.40113 20.6155H11.3923C11.5691 20.6155 11.7243 20.497 11.7694 20.3265L12.3515 18.1566C12.3834 18.0367 12.4721 17.9411 12.5879 17.896C13.2927 17.6209 13.9462 17.2445 14.5277 16.7795C14.624 16.7019 14.7495 16.6721 14.8694 16.7047C15.3268 16.8266 16.4946 17.1399 17.0393 17.2854C17.2098 17.3312 17.3886 17.2563 17.4766 17.1032L18.9722 14.5125C19.0609 14.3594 19.0353 14.1667 18.9106 14.0413L17.3242 12.4549Z" stroke="#F1F3F5"/>
</svg>
