<svg width="20" height="20" viewBox="0 0 20 20" fill="none" xmlns="http://www.w3.org/2000/svg">
  <path d="M18.5 16V18.5H0.5L0.5 7C0.5 6.12759 1.12759 5.5 2 5.5H18.5V8.5" stroke="#F1F3F5"/>
  <path
    d="M0.646447 5.64645L0.5 5.79289V3.5C0.5 3.35611 0.608968 3.10107 0.855019 2.85502C1.10107 2.60897 1.35611 2.5 1.5 2.5H15.5V5.5H1H0.792893L0.646447 5.64645Z"
    stroke="#F1F3F5"/>
  <path d="M14 11V13" stroke="#F1F3F5"/>
  <path d="M19.5 12V8H14C12.5 8 11.5 9 11.5 10V12" stroke="#F1F3F5"/>
  <path d="M19.5 12V16H14C12.5 16 11.5 15 11.5 14V12" stroke="#F1F3F5"/>
</svg>
