<svg width="20" height="20" viewBox="0 0 20 20" fill="none" xmlns="http://www.w3.org/2000/svg">
  <path d="M10 16.5H0.5L0.5 5C0.5 4.12759 1.12759 3.5 2 3.5H18.5V6.5" stroke="#F1F3F5"/>
  <path
    d="M0.646447 3.64645L0.5 3.79289V1.5C0.5 1.35611 0.608968 1.10107 0.855019 0.855019C1.10107 0.608968 1.35611 0.5 1.5 0.5H15.5V3.5H1H0.792893L0.646447 3.64645Z"
    stroke="#F1F3F5"/>
  <path d="M19.5 12V6.5H14C12.5 6.5 11.5 7.5 11.5 8.5V12" stroke="#F1F3F5"/>
  <path d="M14 9V11" stroke="#F1F3F5"/>
  <rect x="16" y="13" width="1" height="7" fill="#F1F3F5"/>
  <rect x="13" y="16" width="7" height="1" fill="#F1F3F5"/>
</svg>
